<svg width="151" height="60" viewBox="0 0 151 60" fill="none" xmlns="http://www.w3.org/2000/svg">
<g clip-path="url(#clip0_1498_29023)">
<path d="M0.886475 17.1H7.21195V42.8685H0.886475V17.1Z" fill="black"/>
<path d="M11.4895 17.1H17.7579V19.65L17.8616 19.701C20.2025 17.6513 23.2099 16.5211 26.3236 16.521C29.1453 16.521 31.3915 17.4075 33.0623 19.1805C34.6819 20.9655 35.3085 23.259 35.3085 26.7V42.8685H28.9875V27.4845C28.9875 25.659 28.7276 24.303 27.8396 23.4165C26.9516 22.53 25.6971 22.113 24.2862 22.113H24.0864C20.5781 22.2105 17.809 25.1385 17.809 28.6425V42.867H11.4895V17.1Z" fill="black"/>
<path d="M59.763 17.106H53.442V42.8685H59.763V17.106Z" fill="black"/>
<path d="M64.045 17.1H70.3164V19.65L70.4201 19.701C72.7624 17.6561 75.769 16.5303 78.8806 16.533C81.7003 16.533 83.9465 17.4195 85.6193 19.1925C87.2374 20.9655 87.864 23.259 87.864 26.7015V42.8685H81.5445V27.4845C81.5445 25.659 81.2831 24.303 80.3951 23.4165C79.5071 22.53 78.2526 22.113 76.8432 22.113H76.6419C73.1336 22.2105 70.366 25.1385 70.366 28.6425V42.867H64.045V17.1Z" fill="black"/>
<path d="M49.2035 2.60849H51.1882V8.60849H50.1951C47.74 8.60849 46.6958 9.65099 46.6958 12.102V15.2835H50.3018V21.1245H46.6958V42.8745H40.2186V21.1245H36.9281V15.2805H40.2186V11.4225C40.2186 5.94599 43.4564 2.60849 49.2035 2.60849Z" fill="black"/>
<path d="M132.806 25.146L132.437 25.7175L132.055 25.146C130.119 22.1757 127.485 19.7238 124.381 18.0041C121.278 16.2844 117.799 15.3493 114.251 15.2805H112.386V5.73749H105.91V15.2805H102.567V21.6H105.91L105.859 42.876H112.336L112.386 21.6H114.249C122.553 21.828 129.244 28.71 129.244 37.0635C129.244 45.558 122.314 53.3685 113.806 53.3685C105.437 53.3685 98.5947 46.6905 98.3663 38.3985V17.1105H92.0469V38.391C92.0469 38.778 92.0469 39.126 92.0709 39.495C92.1401 40.6321 92.3014 41.7618 92.5532 42.873C93.6718 47.6638 96.3807 51.936 100.239 54.9951C104.098 58.0542 108.88 59.7203 113.807 59.7225C125.839 59.7225 135.616 49.0725 135.616 37.056C135.621 33.0433 137.19 29.19 139.991 26.3127C142.793 23.4353 146.607 21.7601 150.624 21.642V15.2805C147.074 15.3489 143.594 16.2837 140.488 18.0034C137.382 19.723 134.745 22.1752 132.806 25.146Z" fill="black"/>
<path d="M28.9514 13.596C27.4234 9.18601 23.3336 5.99401 18.5693 5.81101H18.5497C18.3859 5.81101 18.2372 5.81101 18.099 5.81101C17.9607 5.81101 17.812 5.81101 17.6482 5.81101H17.6287C12.8613 6.00001 8.77153 9.18601 7.2435 13.596H0.886475C1.86623 9.78329 4.08949 6.4047 7.20558 3.99314C10.3217 1.58159 14.1533 0.274308 18.096 0.277508C20.6363 0.270215 23.148 0.812666 25.4582 1.86751C27.8732 2.96387 30.0116 4.58644 31.7162 6.61604C33.4208 8.64564 34.6482 11.0307 35.3085 13.596H28.9514Z" fill="#BD1A43"/>
<path d="M4.01914 52.2945H5.9874L5.97388 52.614C5.9598 52.7902 5.91718 52.9629 5.84767 53.1255C5.77069 53.311 5.66245 53.482 5.52764 53.631C5.38302 53.7895 5.2077 53.9171 5.01228 54.006C4.78259 54.1097 4.53262 54.161 4.28057 54.156C4.00728 54.1595 3.73604 54.1085 3.48275 54.006C3.24199 53.9043 3.02993 53.7452 2.86523 53.5425C2.66294 53.2864 2.51611 52.9912 2.43402 52.6755C2.31461 52.2244 2.25848 51.759 2.26724 51.2925C2.24788 50.7126 2.33915 50.1344 2.53619 49.5885C2.66665 49.2287 2.90545 48.918 3.21982 48.699C3.5288 48.5047 3.88848 48.4061 4.25353 48.4155C4.5159 48.4094 4.77517 48.4731 5.00477 48.6C5.22574 48.7255 5.41626 48.8981 5.56274 49.1055C5.70922 49.3129 5.80805 49.5501 5.85218 49.8L5.90777 50.115H7.74982L7.72277 49.71C7.69615 49.3113 7.58393 48.9231 7.39373 48.5715C7.20173 48.2134 6.94734 47.8924 6.64248 47.6235C6.32756 47.3368 5.96371 47.1087 5.5682 46.95C5.15448 46.7891 4.71405 46.7077 4.27006 46.71C3.53961 46.6936 2.81985 46.8873 2.19662 47.268C1.59345 47.6564 1.11961 48.2151 0.835369 48.873C0.225484 50.4264 0.222267 52.1518 0.826354 53.7075C1.10466 54.3593 1.57194 54.913 2.16808 55.2975C2.78651 55.6746 3.50051 55.8662 4.22498 55.8495C4.65685 55.8583 5.08637 55.7839 5.49008 55.6305C5.78769 55.5138 6.06465 55.3502 6.31043 55.146V55.746H7.858V50.7735L4.02365 50.766L4.01914 52.2945Z" fill="black"/>
<path d="M14.5456 46.8255H12.7381V55.74H14.5456V46.8255Z" fill="black"/>
<path d="M19.5489 55.74H21.3849V52.0965H24.9879V50.433H21.3849V48.4995H25.3935L25.4026 46.8255H19.5489V55.74Z" fill="black"/>
<path d="M29.5059 48.5445H32.1442V55.74H33.9562V48.5445H36.4474V46.8255H29.5059V48.5445Z" fill="black"/>
<path d="M52.4368 52.722C52.3864 52.9879 52.2871 53.2422 52.1438 53.472C52.0103 53.6879 51.8255 53.8677 51.6059 53.9955C51.3631 54.1294 51.0883 54.1948 50.8111 54.1845C50.1906 54.1845 49.7338 53.9745 49.4168 53.5425C49.0773 53.0805 48.906 52.314 48.906 51.267C48.8884 50.6847 48.9692 50.1036 49.1449 49.548C49.2558 49.194 49.4768 48.8845 49.7759 48.6645C50.0846 48.4684 50.4455 48.3701 50.8111 48.3825C51.0898 48.3745 51.3659 48.4374 51.6135 48.5655C51.8294 48.6848 52.0126 48.8553 52.1468 49.062C52.2914 49.2865 52.39 49.5373 52.4368 49.8L52.4954 50.109H54.3465L54.3029 49.689C54.249 49.1554 54.062 48.6438 53.759 48.201C53.4527 47.7492 53.0399 47.3794 52.557 47.124C52.0293 46.8487 51.4409 46.71 50.8457 46.7205C50.1126 46.7 49.3889 46.8894 48.7602 47.2665C48.1648 47.6476 47.7003 48.2013 47.429 48.8535C46.8441 50.4116 46.8441 52.1284 47.429 53.6865C47.7003 54.3441 48.163 54.9053 48.7572 55.2975C49.3825 55.6843 50.1074 55.8798 50.8427 55.86C51.3279 55.8687 51.8104 55.7847 52.264 55.6125C52.6572 55.459 53.015 55.2273 53.3158 54.9315C53.597 54.6501 53.8251 54.3203 53.9889 53.958C54.1484 53.6054 54.2533 53.2306 54.2999 52.8465L54.351 52.4205H52.4954L52.4368 52.722Z" fill="black"/>
<path d="M61.1512 46.8255L57.9149 55.74H59.799L60.6058 53.5125H63.4185L64.2208 55.74H66.1004L62.8701 46.8255H61.1512ZM61.1512 51.7875L62.0062 49.3725L62.8566 51.7875H61.1512Z" fill="black"/>
<path d="M75.9237 51.552C76.2179 51.3292 76.4586 51.0438 76.6284 50.7165C76.8245 50.3175 76.9199 49.8767 76.9063 49.4325C76.9181 48.9483 76.7987 48.47 76.5608 48.048C76.3155 47.6386 75.9476 47.3164 75.509 47.127C74.9925 46.913 74.4363 46.8107 73.8773 46.827H70.3269V55.74H72.1299V52.227H73.6925L75.1845 55.74H77.1257L75.4384 51.8535C75.6077 51.7656 75.7699 51.6648 75.9237 51.552ZM72.1344 50.6025V48.45H73.7872C74.2169 48.45 74.5504 48.5415 74.7788 48.723C74.9831 48.885 75.0793 49.14 75.0793 49.5015C75.0793 49.863 74.9681 50.1315 74.7277 50.31C74.4633 50.508 74.0606 50.61 73.5257 50.61L72.1344 50.6025Z" fill="black"/>
<path d="M88.0127 48.888C87.6848 48.2211 87.1412 47.6841 86.4696 47.364C85.798 47.0295 84.9221 46.8525 83.8703 46.836L83.2949 46.8285H81.5836V55.74H83.7547C84.7989 55.74 85.6778 55.569 86.3705 55.233C87.0639 54.9067 87.6289 54.3595 87.9766 53.6775C88.3177 53.013 88.4905 52.1895 88.4905 51.231C88.513 50.4238 88.3495 49.6222 88.0127 48.888ZM86.2924 49.5675C86.5132 49.965 86.6259 50.532 86.6259 51.249C86.6259 51.966 86.5102 52.536 86.2818 52.947C86.0761 53.3297 85.7452 53.6304 85.3443 53.799C84.8389 53.9992 84.2982 54.0951 83.7547 54.081H83.4196V48.483H83.7997C84.3394 48.4688 84.8768 48.5595 85.3818 48.75C85.7724 48.9068 86.0949 49.1963 86.2924 49.5675Z" fill="black"/>
<path d="M95.2036 2.817C95.9489 2.817 96.6775 3.03763 97.2972 3.45101C97.9168 3.86438 98.3998 4.45193 98.685 5.13934C98.9702 5.82676 99.0449 6.58317 98.8995 7.31293C98.7541 8.04268 98.3952 8.71301 97.8682 9.23913C97.3412 9.76526 96.6697 10.1236 95.9388 10.2687C95.2078 10.4139 94.4502 10.3394 93.7616 10.0546C93.073 9.76989 92.4845 9.28771 92.0705 8.66905C91.6564 8.05039 91.4354 7.32305 91.4354 6.579C91.4366 5.58162 91.834 4.62543 92.5404 3.92018C93.2468 3.21492 94.2046 2.81819 95.2036 2.817ZM95.2036 0.277496C93.9556 0.277496 92.7355 0.646985 91.6977 1.33924C90.66 2.03149 89.8512 3.01542 89.3735 4.16659C88.8959 5.31776 88.771 6.58448 89.0144 7.80656C89.2579 9.02865 89.8589 10.1512 90.7415 11.0323C91.624 11.9133 92.7484 12.5134 93.9725 12.7564C95.1966 12.9995 96.4655 12.8748 97.6185 12.3979C98.7716 11.9211 99.7572 11.1136 100.451 10.0776C101.144 9.04156 101.514 7.82352 101.514 6.5775C101.511 4.90761 100.845 3.30702 99.6623 2.12623C98.4795 0.945434 96.8763 0.280668 95.2036 0.277496Z" fill="#BD1A43"/>
</g>
<defs>
<clipPath id="clip0_1498_29023">
<rect width="151" height="60" fill="white"/>
</clipPath>
</defs>
</svg>
