<svg width="121" height="30" viewBox="0 0 121 30" fill="none" xmlns="http://www.w3.org/2000/svg">
<g clip-path="url(#clip0_66_850)">
<path d="M18.5281 7.76906C21.9766 7.76906 24.3058 10.1229 24.3058 13.5844V23.0768H20.3733V14.8768C20.3733 12.7229 19.2994 11.5383 17.5147 11.5383C15.8207 11.5383 14.4141 12.6614 14.4141 14.9075V23.0768H10.4664V14.8768C10.4664 12.7229 9.4077 11.5383 7.60782 11.5383C5.91382 11.5383 4.5072 12.6614 4.5072 14.9075V23.0768H0.55957V8.16906H4.40132V9.9229C5.44494 8.33829 7.0482 7.76906 8.71195 7.76906C10.8294 7.76906 12.5688 8.73829 13.5519 10.3229C14.6863 8.4306 16.6072 7.76906 18.5281 7.76906ZM32.2758 8.16906V23.0768H28.3282V8.16906H32.2758ZM30.2793 0.70752C31.701 0.70752 32.8052 1.84598 32.8052 3.29214C32.8052 4.73829 31.701 5.84598 30.2793 5.84598C28.8575 5.84598 27.7685 4.73829 27.7685 3.29214C27.7685 1.84598 28.8575 0.70752 30.2793 0.70752Z" fill="#E5E7EA"/>
<path d="M52.0452 3.46156L50.0487 6.96925C48.3849 5.9231 46.3582 5.13848 44.044 5.13848C41.6694 5.13848 39.9905 6.09233 39.9905 7.7231C39.9905 9.30771 41.8207 9.78463 44.3617 10.2154L45.5565 10.4154C49.3378 11.0462 52.3023 12.6923 52.3023 16.4462C52.3023 21.2 48.1883 23.4616 43.6357 23.4616C40.4292 23.4616 36.9807 22.5077 34.7119 20.6462L36.905 17.1846C38.4327 18.4308 40.9283 19.5077 43.6508 19.5077C45.9952 19.5077 47.8102 18.5692 47.8102 16.9077C47.8102 15.4154 46.2674 14.8616 43.318 14.3846L41.9719 14.1692C38.236 13.5692 35.5135 11.8923 35.5135 8.00002C35.5135 3.50771 39.446 1.16925 43.9533 1.16925C46.9178 1.16925 49.3832 1.84617 52.0452 3.46156ZM66.1566 8.16925V11.7385H60.8477V17.1846C60.8477 19.0462 61.8157 19.7231 63.0408 19.7231C63.9786 19.7231 64.9919 19.2462 65.7936 18.7539L67.2456 21.8923C65.9599 22.7846 64.4777 23.4616 62.3904 23.4616C58.7604 23.4616 56.9001 21.3692 56.9001 17.5077V11.7385H54.0717V8.16925H56.9001V3.73848H60.8477V8.16925H66.1566ZM83.245 8.16925V16.7231C83.245 21.4308 79.978 23.4616 76.3178 23.4616C72.6426 23.4616 69.3756 21.4308 69.3756 16.7231V8.16925H73.3232V16.3692C73.3232 18.7539 74.6089 19.7231 76.3178 19.7231C78.0118 19.7231 79.3125 18.7539 79.3125 16.3692V8.16925H83.245ZM93.4665 7.76925C95.4327 7.76925 96.8242 8.55387 97.7771 9.7231V0.923096H101.71V23.0769H97.8527V21.4308C96.8999 22.6308 95.4781 23.4616 93.4665 23.4616C89.4281 23.4616 86.3729 20.0923 86.3729 15.6154C86.3729 11.1385 89.4281 7.76925 93.4665 7.76925ZM94.1925 11.5077C91.8784 11.5077 90.4112 13.3385 90.4112 15.6154C90.4112 17.8923 91.8784 19.7231 94.1925 19.7231C96.4461 19.7231 97.9737 17.9692 97.9737 15.6154C97.9737 13.2616 96.4461 11.5077 94.1925 11.5077ZM120.714 8.16925L109.507 29.2923H105.181L110.308 19.9077L103.986 8.16925H108.463L112.486 15.8308L116.388 8.16925H120.714Z" fill="#E5E7EA"/>
</g>
<defs>
<clipPath id="clip0_66_850">
<rect width="121" height="30" fill="white"/>
</clipPath>
</defs>
</svg>
