<svg width="213" height="52" viewBox="0 0 213 52" fill="none" xmlns="http://www.w3.org/2000/svg">
<g id="Frame">
<path id="Exclude" d="M32.6156 13.4666C38.6861 13.4666 42.7864 17.5466 42.7864 23.5466V39.9999H35.8639V25.7866C35.8639 22.0532 33.9735 19.9999 30.8317 19.9999C27.8497 19.9999 25.3736 21.9466 25.3736 25.8399V39.9999H18.4245V25.7866C18.4245 22.0532 16.5607 19.9999 13.3924 19.9999C10.4104 19.9999 7.93423 21.9466 7.93423 25.8399V39.9999H0.985107V14.1599H7.74786V17.1999C9.58498 14.4532 12.4072 13.4666 15.336 13.4666C19.0635 13.4666 22.1254 15.1466 23.856 17.8932C25.8529 14.6132 29.2342 13.4666 32.6156 13.4666ZM56.8161 14.1599V39.9999H49.867V14.1599H56.8161ZM53.3016 1.22656C55.8044 1.22656 57.748 3.1999 57.748 5.70657C57.748 8.21323 55.8044 10.1332 53.3016 10.1332C50.7989 10.1332 48.8819 8.21323 48.8819 5.70657C48.8819 3.1999 50.7989 1.22656 53.3016 1.22656Z" fill="#E5E7EA"/>
<path id="Vector" d="M91.6167 6.0001L88.1022 12.0801C85.1735 10.2668 81.6057 8.90676 77.5321 8.90676C73.352 8.90676 70.3966 10.5601 70.3966 13.3868C70.3966 16.1334 73.6182 16.9601 78.0912 17.7068L80.1946 18.0534C86.8509 19.1468 92.0694 22.0001 92.0694 28.5068C92.0694 36.7468 84.8274 40.6668 76.8132 40.6668C71.1687 40.6668 65.0982 39.0134 61.1045 35.7868L64.9651 29.7868C67.6542 31.9468 72.0474 33.8134 76.8399 33.8134C80.9667 33.8134 84.1617 32.1868 84.1617 29.3068C84.1617 26.7201 81.446 25.7601 76.2541 24.9334L73.8845 24.5601C67.3081 23.5201 62.5156 20.6134 62.5156 13.8668C62.5156 6.0801 69.4381 2.02676 77.3724 2.02676C82.5909 2.02676 86.9307 3.2001 91.6167 6.0001ZM116.457 14.1601V20.3468H107.112V29.7868C107.112 33.0134 108.816 34.1868 110.973 34.1868C112.623 34.1868 114.407 33.3601 115.818 32.5068L118.374 37.9468C116.111 39.4934 113.502 40.6668 109.828 40.6668C103.438 40.6668 100.163 37.0401 100.163 30.3468V20.3468H95.1841V14.1601H100.163V6.4801H107.112V14.1601H116.457ZM146.539 14.1601V28.9868C146.539 37.1468 140.788 40.6668 134.345 40.6668C127.875 40.6668 122.124 37.1468 122.124 28.9868V14.1601H129.073V28.3734C129.073 32.5068 131.336 34.1868 134.345 34.1868C137.327 34.1868 139.616 32.5068 139.616 28.3734V14.1601H146.539ZM164.532 13.4668C167.993 13.4668 170.443 14.8268 172.12 16.8534V1.6001H179.043V40.0001H172.253V37.1468C170.576 39.2268 168.073 40.6668 164.532 40.6668C157.423 40.6668 152.045 34.8268 152.045 27.0668C152.045 19.3068 157.423 13.4668 164.532 13.4668ZM165.81 19.9468C161.736 19.9468 159.154 23.1201 159.154 27.0668C159.154 31.0134 161.736 34.1868 165.81 34.1868C169.777 34.1868 172.466 31.1468 172.466 27.0668C172.466 22.9868 169.777 19.9468 165.81 19.9468ZM212.497 14.1601L192.768 50.7734H185.153L194.179 34.5068L183.05 14.1601H190.931L198.013 27.4401L204.882 14.1601H212.497Z" fill="#E5E7EA"/>
<circle id="Ellipse 17" cx="53.5" cy="5.5" r="5.5" fill="#4183EE"/>
</g>
</svg>
